<svg xmlns="http://www.w3.org/2000/svg" viewBox="0 0 400 400">
  <defs>
    <linearGradient id="gold" x1="0%" y1="0%" x2="100%" y2="100%">
      <stop offset="0%" stop-color="#FFD700"/><stop offset="50%" stop-color="#F28C1A"/><stop offset="100%" stop-color="#B8860B"/>
    </linearGradient>
    <linearGradient id="goldLight" x1="0%" y1="0%" x2="100%" y2="100%">
      <stop offset="0%" stop-color="#FFF8DC"/><stop offset="50%" stop-color="#FFD700"/><stop offset="100%" stop-color="#DAA520"/>
    </linearGradient>
    <radialGradient id="glow" cx="50%" cy="50%" r="50%">
      <stop offset="0%" stop-color="#FFD700" stop-opacity="0.25"/><stop offset="100%" stop-color="#FFD700" stop-opacity="0"/>
    </radialGradient>
    <filter id="starGlow"><feGaussianBlur stdDeviation="2"/></filter>
  </defs>
  <rect width="400" height="400" fill="#0a0604" rx="20"/>
  <circle cx="200" cy="200" r="155" fill="url(#glow)"/>
  <!-- Crab body/shell -->
  <ellipse cx="200" cy="210" rx="70" ry="55" fill="none" stroke="url(#gold)" stroke-width="3.5"/>
  <!-- Shell pattern -->
  <path d="M155 195 Q200 170 245 195" fill="none" stroke="url(#goldLight)" stroke-width="1.5" opacity="0.6"/>
  <path d="M148 210 Q200 185 252 210" fill="none" stroke="url(#goldLight)" stroke-width="1.5" opacity="0.5"/>
  <path d="M150 225 Q200 200 250 225" fill="none" stroke="url(#goldLight)" stroke-width="1.5" opacity="0.4"/>
  <!-- Shell center jewel -->
  <circle cx="200" cy="200" r="8" fill="none" stroke="url(#goldLight)" stroke-width="2"/>
  <circle cx="200" cy="200" r="4" fill="#FFD700"/>
  <!-- Left claw -->
  <path d="M135 200 Q110 180 90 165 Q75 152 65 160 Q58 170 68 180 Q78 188 85 185" fill="none" stroke="url(#gold)" stroke-width="3.5" stroke-linecap="round"/>
  <path d="M90 165 Q80 148 88 138 Q98 132 105 142 Q110 152 100 160" fill="none" stroke="url(#gold)" stroke-width="3.5" stroke-linecap="round"/>
  <!-- Right claw -->
  <path d="M265 200 Q290 180 310 165 Q325 152 335 160 Q342 170 332 180 Q322 188 315 185" fill="none" stroke="url(#gold)" stroke-width="3.5" stroke-linecap="round"/>
  <path d="M310 165 Q320 148 312 138 Q302 132 295 142 Q290 152 300 160" fill="none" stroke="url(#gold)" stroke-width="3.5" stroke-linecap="round"/>
  <!-- Left legs -->
  <path d="M145 235 Q120 260 105 280 Q100 288 108 290" fill="none" stroke="url(#gold)" stroke-width="2.5" stroke-linecap="round"/>
  <path d="M155 245 Q135 270 125 290 Q122 298 130 298" fill="none" stroke="url(#gold)" stroke-width="2.5" stroke-linecap="round"/>
  <path d="M165 252 Q150 275 145 295 Q143 303 150 302" fill="none" stroke="url(#gold)" stroke-width="2" stroke-linecap="round"/>
  <!-- Right legs -->
  <path d="M255 235 Q280 260 295 280 Q300 288 292 290" fill="none" stroke="url(#gold)" stroke-width="2.5" stroke-linecap="round"/>
  <path d="M245 245 Q265 270 275 290 Q278 298 270 298" fill="none" stroke="url(#gold)" stroke-width="2.5" stroke-linecap="round"/>
  <path d="M235 252 Q250 275 255 295 Q257 303 250 302" fill="none" stroke="url(#gold)" stroke-width="2" stroke-linecap="round"/>
  <!-- Eyes on stalks -->
  <path d="M180 180 Q178 160 172 148" fill="none" stroke="url(#gold)" stroke-width="2"/>
  <circle cx="172" cy="145" r="4" fill="#FFD700"/>
  <circle cx="172" cy="145" r="6" fill="none" stroke="url(#goldLight)" stroke-width="1"/>
  <path d="M220 180 Q222 160 228 148" fill="none" stroke="url(#gold)" stroke-width="2"/>
  <circle cx="228" cy="145" r="4" fill="#FFD700"/>
  <circle cx="228" cy="145" r="6" fill="none" stroke="url(#goldLight)" stroke-width="1"/>
  <!-- Water ripples below -->
  <path d="M120 330 Q160 320 200 330 Q240 340 280 330" fill="none" stroke="url(#gold)" stroke-width="1.5" opacity="0.4"/>
  <path d="M130 342 Q165 333 200 342 Q235 351 270 342" fill="none" stroke="url(#gold)" stroke-width="1" opacity="0.3"/>
  <!-- Sparkles -->
  <g fill="#FFD700" filter="url(#starGlow)">
    <circle cx="55" cy="60" r="2"/><circle cx="340" cy="65" r="1.5"/><circle cx="60" cy="330" r="1.8"/>
    <circle cx="350" cy="335" r="2"/><circle cx="200" cy="45" r="1.5"/><circle cx="45" cy="190" r="1"/>
    <circle cx="355" cy="200" r="1.3"/><circle cx="170" cy="55" r="1.2"/><circle cx="240" cy="50" r="1"/>
  </g>
  <g fill="#FFF8DC" opacity="0.9">
    <path d="M70 85 L72 78 L74 85 L81 87 L74 89 L72 96 L70 89 L63 87Z"/>
    <path d="M330 80 L332 73 L334 80 L341 82 L334 84 L332 91 L330 84 L323 82Z"/>
    <path d="M200 70 L202 63 L204 70 L211 72 L204 74 L202 81 L200 74 L193 72Z"/>
  </g>
</svg>