<svg xmlns="http://www.w3.org/2000/svg" viewBox="0 0 400 400">
  <defs>
    <linearGradient id="gold" x1="0%" y1="0%" x2="100%" y2="100%">
      <stop offset="0%" stop-color="#FFD700"/><stop offset="50%" stop-color="#F28C1A"/><stop offset="100%" stop-color="#B8860B"/>
    </linearGradient>
    <linearGradient id="goldLight" x1="0%" y1="0%" x2="100%" y2="100%">
      <stop offset="0%" stop-color="#FFF8DC"/><stop offset="50%" stop-color="#FFD700"/><stop offset="100%" stop-color="#DAA520"/>
    </linearGradient>
    <radialGradient id="glow" cx="50%" cy="50%" r="50%">
      <stop offset="0%" stop-color="#FFD700" stop-opacity="0.3"/><stop offset="100%" stop-color="#FFD700" stop-opacity="0"/>
    </radialGradient>
    <filter id="starGlow"><feGaussianBlur stdDeviation="2"/></filter>
  </defs>
  <rect width="400" height="400" fill="#0a0604" rx="20"/>
  <circle cx="200" cy="195" r="155" fill="url(#glow)"/>
  <!-- Mane - outer flowing -->
  <path d="M200 80 Q230 75 255 85 Q280 98 295 120 Q310 145 310 175 Q308 200 295 220" fill="none" stroke="url(#gold)" stroke-width="3" stroke-linecap="round"/>
  <path d="M200 80 Q170 75 145 85 Q120 98 105 120 Q90 145 90 175 Q92 200 105 220" fill="none" stroke="url(#gold)" stroke-width="3" stroke-linecap="round"/>
  <!-- Mane - flowing strands right -->
  <path d="M245 90 Q270 100 288 125 Q303 150 300 180" fill="none" stroke="url(#gold)" stroke-width="2.5" opacity="0.8" stroke-linecap="round"/>
  <path d="M260 95 Q282 110 296 138 Q307 165 302 195" fill="none" stroke="url(#goldLight)" stroke-width="2" opacity="0.6" stroke-linecap="round"/>
  <path d="M270 105 Q290 125 300 155 Q308 180 303 205" fill="none" stroke="url(#gold)" stroke-width="1.5" opacity="0.5" stroke-linecap="round"/>
  <!-- Mane - flowing strands left -->
  <path d="M155 90 Q130 100 112 125 Q97 150 100 180" fill="none" stroke="url(#gold)" stroke-width="2.5" opacity="0.8" stroke-linecap="round"/>
  <path d="M140 95 Q118 110 104 138 Q93 165 98 195" fill="none" stroke="url(#goldLight)" stroke-width="2" opacity="0.6" stroke-linecap="round"/>
  <path d="M130 105 Q110 125 100 155 Q92 180 97 205" fill="none" stroke="url(#gold)" stroke-width="1.5" opacity="0.5" stroke-linecap="round"/>
  <!-- Mane top strands -->
  <path d="M175 82 Q170 65 180 55 Q190 48 200 52" fill="none" stroke="url(#goldLight)" stroke-width="2" opacity="0.7"/>
  <path d="M225 82 Q230 65 220 55 Q210 48 200 52" fill="none" stroke="url(#goldLight)" stroke-width="2" opacity="0.7"/>
  <path d="M200 80 Q200 60 200 50" fill="none" stroke="url(#gold)" stroke-width="2" opacity="0.6"/>
  <!-- Lion face -->
  <ellipse cx="200" cy="195" rx="55" ry="60" fill="none" stroke="url(#gold)" stroke-width="3"/>
  <!-- Eyes -->
  <path d="M168 180 Q175 172 185 178" fill="none" stroke="url(#gold)" stroke-width="2.5"/>
  <circle cx="176" cy="178" r="3.5" fill="#FFD700"/>
  <path d="M215 178 Q225 172 232 180" fill="none" stroke="url(#gold)" stroke-width="2.5"/>
  <circle cx="224" cy="178" r="3.5" fill="#FFD700"/>
  <!-- Nose -->
  <path d="M192 198 L200 208 L208 198" fill="none" stroke="url(#gold)" stroke-width="2.5"/>
  <circle cx="200" cy="202" r="5" fill="url(#goldLight)" opacity="0.4"/>
  <!-- Mouth -->
  <path d="M185 215 Q192 222 200 218 Q208 222 215 215" fill="none" stroke="url(#gold)" stroke-width="2"/>
  <!-- Whisker lines -->
  <path d="M170 205 Q140 200 120 195" fill="none" stroke="url(#goldLight)" stroke-width="1" opacity="0.5"/>
  <path d="M170 212 Q140 212 118 210" fill="none" stroke="url(#goldLight)" stroke-width="1" opacity="0.5"/>
  <path d="M230 205 Q260 200 280 195" fill="none" stroke="url(#goldLight)" stroke-width="1" opacity="0.5"/>
  <path d="M230 212 Q260 212 282 210" fill="none" stroke="url(#goldLight)" stroke-width="1" opacity="0.5"/>
  <!-- Chin/jaw -->
  <path d="M160 225 Q180 260 200 265 Q220 260 240 225" fill="none" stroke="url(#gold)" stroke-width="2" opacity="0.6"/>
  <!-- Crown/forehead jewel -->
  <path d="M185 150 L200 138 L215 150" fill="none" stroke="url(#goldLight)" stroke-width="2"/>
  <circle cx="200" cy="155" r="5" fill="url(#goldLight)" opacity="0.8"/>
  <!-- Body suggestion -->
  <path d="M145 240 Q140 270 145 300 Q150 320 170 335" fill="none" stroke="url(#gold)" stroke-width="2.5" opacity="0.5" stroke-linecap="round"/>
  <path d="M255 240 Q260 270 255 300 Q250 320 230 335" fill="none" stroke="url(#gold)" stroke-width="2.5" opacity="0.5" stroke-linecap="round"/>
  <!-- Tail -->
  <path d="M255 290 Q280 310 300 300 Q315 290 310 275 Q305 265 295 270" fill="none" stroke="url(#gold)" stroke-width="2.5" opacity="0.5" stroke-linecap="round"/>
  <!-- Sparkles -->
  <g fill="#FFD700" filter="url(#starGlow)">
    <circle cx="55" cy="55" r="2"/><circle cx="348" cy="60" r="1.5"/><circle cx="50" cy="330" r="1.8"/>
    <circle cx="350" cy="340" r="2"/><circle cx="60" cy="160" r="1"/><circle cx="345" cy="170" r="1.3"/>
    <circle cx="130" cy="45" r="1.2"/><circle cx="275" cy="42" r="1"/><circle cx="200" cy="35" r="1.5"/>
  </g>
  <g fill="#FFF8DC" opacity="0.9">
    <path d="M70 70 L72 63 L74 70 L81 72 L74 74 L72 81 L70 74 L63 72Z"/>
    <path d="M335 65 L337 58 L339 65 L346 67 L339 69 L337 76 L335 69 L328 67Z"/>
    <path d="M55 300 L57 293 L59 300 L66 302 L59 304 L57 311 L55 304 L48 302Z"/>
    <path d="M345 310 L347 303 L349 310 L356 312 L349 314 L347 321 L345 314 L338 312Z"/>
  </g>
</svg>