<svg xmlns="http://www.w3.org/2000/svg" viewBox="0 0 400 400">
  <defs>
    <linearGradient id="gold" x1="0%" y1="0%" x2="100%" y2="100%">
      <stop offset="0%" stop-color="#FFD700"/><stop offset="50%" stop-color="#F28C1A"/><stop offset="100%" stop-color="#B8860B"/>
    </linearGradient>
    <linearGradient id="goldLight" x1="0%" y1="0%" x2="100%" y2="100%">
      <stop offset="0%" stop-color="#FFF8DC"/><stop offset="50%" stop-color="#FFD700"/><stop offset="100%" stop-color="#DAA520"/>
    </linearGradient>
    <radialGradient id="glow" cx="50%" cy="50%" r="50%">
      <stop offset="0%" stop-color="#FFD700" stop-opacity="0.25"/><stop offset="100%" stop-color="#FFD700" stop-opacity="0"/>
    </radialGradient>
    <filter id="starGlow"><feGaussianBlur stdDeviation="2"/></filter>
  </defs>
  <rect width="400" height="400" fill="#0a0604" rx="20"/>
  <circle cx="200" cy="210" r="150" fill="url(#glow)"/>
  <!-- Bull head shape -->
  <ellipse cx="200" cy="230" rx="65" ry="75" fill="none" stroke="url(#gold)" stroke-width="3"/>
  <!-- Forehead detail -->
  <path d="M160 195 Q200 170 240 195" fill="none" stroke="url(#goldLight)" stroke-width="2"/>
  <!-- Left horn -->
  <path d="M140 200 Q120 170 100 130 Q85 100 75 85 Q68 72 78 65 Q90 60 100 72 Q108 83 112 100" fill="none" stroke="url(#gold)" stroke-width="4.5" stroke-linecap="round"/>
  <!-- Right horn -->
  <path d="M260 200 Q280 170 300 130 Q315 100 325 85 Q332 72 322 65 Q310 60 300 72 Q292 83 288 100" fill="none" stroke="url(#gold)" stroke-width="4.5" stroke-linecap="round"/>
  <!-- Horn ridges left -->
  <path d="M115 155 Q108 150 112 143" fill="none" stroke="url(#goldLight)" stroke-width="1.5" opacity="0.7"/>
  <path d="M105 130 Q98 126 102 118" fill="none" stroke="url(#goldLight)" stroke-width="1.5" opacity="0.7"/>
  <path d="M93 108 Q87 104 91 96" fill="none" stroke="url(#goldLight)" stroke-width="1.5" opacity="0.7"/>
  <!-- Horn ridges right -->
  <path d="M285 155 Q292 150 288 143" fill="none" stroke="url(#goldLight)" stroke-width="1.5" opacity="0.7"/>
  <path d="M295 130 Q302 126 298 118" fill="none" stroke="url(#goldLight)" stroke-width="1.5" opacity="0.7"/>
  <path d="M307 108 Q313 104 309 96" fill="none" stroke="url(#goldLight)" stroke-width="1.5" opacity="0.7"/>
  <!-- Eyes -->
  <ellipse cx="175" cy="225" rx="8" ry="5" fill="none" stroke="url(#gold)" stroke-width="2"/>
  <circle cx="175" cy="225" r="3" fill="#FFD700"/>
  <ellipse cx="225" cy="225" rx="8" ry="5" fill="none" stroke="url(#gold)" stroke-width="2"/>
  <circle cx="225" cy="225" r="3" fill="#FFD700"/>
  <!-- Nostrils -->
  <path d="M185 265 Q180 275 185 280 Q190 285 195 280" fill="none" stroke="url(#gold)" stroke-width="2"/>
  <path d="M215 265 Q220 275 215 280 Q210 285 205 280" fill="none" stroke="url(#gold)" stroke-width="2"/>
  <!-- Nose ring -->
  <circle cx="200" cy="285" r="10" fill="none" stroke="url(#goldLight)" stroke-width="2.5"/>
  <circle cx="200" cy="295" r="2" fill="#FFD700"/>
  <!-- Ears -->
  <path d="M135 215 Q118 200 125 185 Q130 178 138 185" fill="none" stroke="url(#gold)" stroke-width="2.5"/>
  <path d="M265 215 Q282 200 275 185 Q270 178 262 185" fill="none" stroke="url(#gold)" stroke-width="2.5"/>
  <!-- Forehead jewel -->
  <circle cx="200" cy="188" r="5" fill="url(#goldLight)" opacity="0.8"/>
  <circle cx="200" cy="188" r="8" fill="none" stroke="url(#gold)" stroke-width="1" opacity="0.5"/>
  <!-- Decorative neck fur -->
  <path d="M150 290 Q155 310 165 320 Q175 328 185 325" fill="none" stroke="url(#gold)" stroke-width="1.5" opacity="0.5"/>
  <path d="M250 290 Q245 310 235 320 Q225 328 215 325" fill="none" stroke="url(#gold)" stroke-width="1.5" opacity="0.5"/>
  <path d="M160 300 Q170 318 185 322" fill="none" stroke="url(#gold)" stroke-width="1" opacity="0.4"/>
  <path d="M240 300 Q230 318 215 322" fill="none" stroke="url(#gold)" stroke-width="1" opacity="0.4"/>
  <!-- Sparkles -->
  <g fill="#FFD700" filter="url(#starGlow)">
    <circle cx="55" cy="55" r="2"/><circle cx="345" cy="60" r="1.5"/><circle cx="50" cy="320" r="1.8"/>
    <circle cx="350" cy="330" r="2"/><circle cx="200" cy="40" r="1.5"/><circle cx="60" cy="180" r="1"/>
    <circle cx="340" cy="170" r="1.3"/><circle cx="150" cy="50" r="1.2"/><circle cx="260" cy="45" r="1"/>
  </g>
  <g fill="#FFF8DC" opacity="0.9">
    <path d="M70 80 L72 73 L74 80 L81 82 L74 84 L72 91 L70 84 L63 82Z"/>
    <path d="M330 75 L332 68 L334 75 L341 77 L334 79 L332 86 L330 79 L323 77Z"/>
    <path d="M55 290 L57 283 L59 290 L66 292 L59 294 L57 301 L55 294 L48 292Z"/>
    <path d="M345 300 L347 293 L349 300 L356 302 L349 304 L347 311 L345 304 L338 302Z"/>
  </g>
</svg>