<svg xmlns="http://www.w3.org/2000/svg" viewBox="0 0 400 400">
  <defs>
    <linearGradient id="gold" x1="0%" y1="0%" x2="100%" y2="100%">
      <stop offset="0%" stop-color="#FFD700"/><stop offset="50%" stop-color="#F28C1A"/><stop offset="100%" stop-color="#B8860B"/>
    </linearGradient>
    <linearGradient id="goldLight" x1="0%" y1="0%" x2="100%" y2="100%">
      <stop offset="0%" stop-color="#FFF8DC"/><stop offset="50%" stop-color="#FFD700"/><stop offset="100%" stop-color="#DAA520"/>
    </linearGradient>
    <radialGradient id="glow" cx="50%" cy="50%" r="50%">
      <stop offset="0%" stop-color="#FFD700" stop-opacity="0.25"/><stop offset="100%" stop-color="#FFD700" stop-opacity="0"/>
    </radialGradient>
    <filter id="starGlow"><feGaussianBlur stdDeviation="2"/></filter>
  </defs>
  <rect width="400" height="400" fill="#0a0604" rx="20"/>
  <circle cx="200" cy="200" r="155" fill="url(#glow)"/>
  <!-- Maiden head -->
  <ellipse cx="200" cy="130" rx="30" ry="35" fill="none" stroke="url(#gold)" stroke-width="2.5"/>
  <!-- Face features -->
  <circle cx="190" cy="125" r="2" fill="#FFD700"/>
  <circle cx="210" cy="125" r="2" fill="#FFD700"/>
  <path d="M195 137 Q200 142 205 137" fill="none" stroke="url(#goldLight)" stroke-width="1.5"/>
  <!-- Hair flowing left -->
  <path d="M172 120 Q150 105 135 115 Q120 128 118 150 Q115 175 120 200 Q125 230 140 255" fill="none" stroke="url(#gold)" stroke-width="2.5" stroke-linecap="round"/>
  <path d="M175 112 Q155 95 138 105 Q118 118 112 145 Q108 175 115 210 Q122 240 135 260" fill="none" stroke="url(#gold)" stroke-width="2" opacity="0.7" stroke-linecap="round"/>
  <path d="M178 108 Q162 90 142 98 Q122 110 115 140 Q110 170 112 200" fill="none" stroke="url(#goldLight)" stroke-width="1.5" opacity="0.5" stroke-linecap="round"/>
  <!-- Hair flowing right -->
  <path d="M228 120 Q245 108 255 118 Q265 132 262 155 Q258 180 248 200" fill="none" stroke="url(#gold)" stroke-width="2.5" stroke-linecap="round"/>
  <path d="M225 112 Q242 100 255 112 Q268 128 265 155 Q260 180 250 200" fill="none" stroke="url(#gold)" stroke-width="2" opacity="0.7" stroke-linecap="round"/>
  <!-- Hair flower ornament -->
  <circle cx="160" cy="108" r="7" fill="none" stroke="url(#goldLight)" stroke-width="1.5"/>
  <circle cx="160" cy="108" r="3" fill="#FFD700"/>
  <path d="M153 108 L160 101 L167 108 L160 115Z" fill="none" stroke="url(#goldLight)" stroke-width="1" opacity="0.5"/>
  <!-- Neck and shoulders -->
  <path d="M190 165 L190 180 Q180 195 160 200" fill="none" stroke="url(#gold)" stroke-width="2" stroke-linecap="round"/>
  <path d="M210 165 L210 180 Q220 195 240 200" fill="none" stroke="url(#gold)" stroke-width="2" stroke-linecap="round"/>
  <!-- Body/dress -->
  <path d="M160 200 Q155 230 158 260 Q162 290 175 320 Q185 340 200 350" fill="none" stroke="url(#gold)" stroke-width="2.5" stroke-linecap="round"/>
  <path d="M240 200 Q245 230 242 260 Q238 290 225 320 Q215 340 200 350" fill="none" stroke="url(#gold)" stroke-width="2.5" stroke-linecap="round"/>
  <!-- Dress folds -->
  <path d="M170 230 Q185 240 175 260" fill="none" stroke="url(#goldLight)" stroke-width="1" opacity="0.4"/>
  <path d="M230 230 Q215 240 225 260" fill="none" stroke="url(#goldLight)" stroke-width="1" opacity="0.4"/>
  <path d="M168 270 Q185 280 178 300" fill="none" stroke="url(#goldLight)" stroke-width="1" opacity="0.3"/>
  <path d="M232 270 Q215 280 222 300" fill="none" stroke="url(#goldLight)" stroke-width="1" opacity="0.3"/>
  <!-- Wheat sheaf in right hand -->
  <path d="M250 200 Q260 190 265 175 Q268 160 272 145" fill="none" stroke="url(#gold)" stroke-width="2" stroke-linecap="round"/>
  <path d="M272 145 Q275 135 280 128" fill="none" stroke="url(#goldLight)" stroke-width="2" stroke-linecap="round"/>
  <path d="M272 145 Q268 133 265 125" fill="none" stroke="url(#goldLight)" stroke-width="2" stroke-linecap="round"/>
  <path d="M272 145 Q278 138 285 135" fill="none" stroke="url(#goldLight)" stroke-width="2" stroke-linecap="round"/>
  <!-- Wheat grains -->
  <ellipse cx="280" cy="125" rx="4" ry="7" fill="none" stroke="url(#goldLight)" stroke-width="1.5" transform="rotate(-20 280 125)"/>
  <ellipse cx="263" cy="122" rx="4" ry="7" fill="none" stroke="url(#goldLight)" stroke-width="1.5" transform="rotate(15 263 122)"/>
  <ellipse cx="287" cy="132" rx="4" ry="7" fill="none" stroke="url(#goldLight)" stroke-width="1.5" transform="rotate(-35 287 132)"/>
  <ellipse cx="275" cy="115" rx="3" ry="6" fill="none" stroke="url(#goldLight)" stroke-width="1" opacity="0.7" transform="rotate(-5 275 115)"/>
  <!-- Left hand gesture -->
  <path d="M155 205 Q140 210 130 220 Q125 228 130 232" fill="none" stroke="url(#gold)" stroke-width="2" stroke-linecap="round"/>
  <!-- Sparkles -->
  <g fill="#FFD700" filter="url(#starGlow)">
    <circle cx="60" cy="55" r="2"/><circle cx="340" cy="60" r="1.5"/><circle cx="55" cy="320" r="1.8"/>
    <circle cx="345" cy="325" r="2"/><circle cx="80" cy="170" r="1"/><circle cx="320" cy="180" r="1.3"/>
    <circle cx="160" cy="45" r="1.2"/><circle cx="250" cy="50" r="1"/><circle cx="200" cy="38" r="1.5"/>
  </g>
  <g fill="#FFF8DC" opacity="0.9">
    <path d="M75 70 L77 63 L79 70 L86 72 L79 74 L77 81 L75 74 L68 72Z"/>
    <path d="M325 75 L327 68 L329 75 L336 77 L329 79 L327 86 L325 79 L318 77Z"/>
    <path d="M60 295 L62 288 L64 295 L71 297 L64 299 L62 306 L60 299 L53 297Z"/>
    <path d="M340 300 L342 293 L344 300 L351 302 L344 304 L342 311 L340 304 L333 302Z"/>
  </g>
</svg>